<svg preserveAspectRatio="none" width="100%" height="100%" overflow="visible" style="display: block;" viewBox="0 0 219.018 14.5681" fill="none" xmlns="http://www.w3.org/2000/svg">
<g id="Group">
<path id="Vector" d="M2.59234 5.79647H3.03023C3.7659 5.79647 4.44901 5.65968 5.0971 5.369C5.74518 5.07832 6.30569 4.68505 6.77861 4.17209C7.25154 3.65913 7.61937 3.07777 7.89962 2.39382C8.17988 1.70987 8.30249 0.991726 8.30249 0.205185H10.6846C10.6846 1.69277 10.3343 3.04357 9.6512 4.22339C8.96809 5.4203 8.03975 6.36073 6.84868 7.02758C7.30409 7.31826 7.74198 7.71153 8.12733 8.19029C8.53019 8.66906 8.91554 9.26751 9.30089 9.98566L11.7181 14.3287H8.7579L6.97129 11.0971C6.656 10.5157 6.34072 10.037 6.06047 9.66078C5.7627 9.26751 5.44741 8.95974 5.13213 8.73745C4.81684 8.51517 4.46653 8.34418 4.08118 8.25869C3.71335 8.17319 3.27545 8.1219 2.78501 8.1219H2.57482V14.3458H0V0.205185H2.59234V5.79647Z" fill="var(--fill-0, white)"/>
<path id="Vector_2" d="M12.1735 14.3287L17.8136 0.205185H20.4059L26.0285 14.3287H23.2435L22.1925 11.5929H16.0445L14.9935 14.3287H12.2085H12.1735ZM16.9203 9.26751H21.2817L19.0922 3.62493L16.9027 9.26751H16.9203Z" fill="var(--fill-0, white)"/>
<path id="Vector_3" d="M39.4456 0.205185V14.3287H36.7481L30.1272 4.30888V14.3287H27.5348V0.205185H30.2323L36.8532 10.225V0.205185H39.4456Z" fill="var(--fill-0, white)"/>
<path id="Vector_4" d="M57.0314 3.83012H54.6493C54.6493 3.33425 54.4916 2.94098 54.1588 2.6332C53.826 2.32543 53.4057 2.17154 52.8802 2.17154C52.3547 2.17154 51.9343 2.32543 51.6015 2.6332C51.2687 2.94098 51.1111 3.35135 51.1111 3.83012C51.1111 4.22339 51.2162 4.61666 51.4439 4.99283C51.6541 5.369 52.0569 5.86487 52.635 6.46332L55.3499 9.31881L57.4168 6.7882H60.2018L56.8388 10.8748L60.1492 14.3287H57.0489L55.3849 12.5847C54.6843 13.3028 53.9837 13.7987 53.3181 14.1065C52.6525 14.4142 51.8818 14.551 51.0585 14.551C50.428 14.551 49.85 14.4484 49.3245 14.2603C48.799 14.0723 48.3611 13.7987 47.9933 13.4738C47.6254 13.1489 47.3452 12.7215 47.135 12.2598C46.9248 11.781 46.8372 11.251 46.8372 10.6525C46.8372 9.79757 47.1 8.99393 47.643 8.27579C48.186 7.54054 48.8866 6.97628 49.7449 6.56591C49.3945 6.08715 49.1493 5.64258 48.9917 5.21511C48.834 4.78764 48.764 4.32598 48.764 3.84721C48.764 3.30006 48.8691 2.78709 49.0793 2.32543C49.2895 1.86376 49.5872 1.45339 49.9726 1.11142C50.3404 0.769443 50.7783 0.495863 51.2863 0.307777C51.7942 0.102592 52.3372 0.0170987 52.8977 0.0170987C53.4582 0.0170987 54.0187 0.119691 54.5092 0.307777C55.0171 0.512962 55.455 0.769443 55.8228 1.11142C56.1907 1.45339 56.4884 1.86376 56.7161 2.32543C56.9263 2.78709 57.0489 3.30006 57.0489 3.84721L57.0314 3.83012ZM51.2863 8.34418C50.6207 8.46387 50.1302 8.73745 49.8324 9.16492C49.5172 9.59239 49.3595 10.037 49.3595 10.5157C49.3595 11.0458 49.5172 11.4903 49.85 11.8152C50.1828 12.1401 50.6207 12.3111 51.1461 12.3111C52.0745 12.3111 52.9853 11.8836 53.8611 11.0458L51.2687 8.34418H51.2863Z" fill="var(--fill-0, white)"/>
<path id="Vector_5" d="M75.0202 0.205185H77.1396L80.38 10.2763L83.3927 0.205185H86.1077L81.6762 14.3287H79.1889L76.0536 4.71925L72.9183 14.3287H70.431L66.0346 0.205185H68.7495L71.7797 10.2763L75.0202 0.205185Z" fill="var(--fill-0, white)"/>
<path id="Vector_6" d="M86.9835 7.26696C86.9835 6.20684 87.1761 5.21511 87.544 4.32598C87.9118 3.43685 88.4373 2.6674 89.1029 2.03475C89.7685 1.4021 90.5742 0.889134 91.485 0.530061C92.4133 0.170987 93.4117 0 94.5328 0C95.6538 0 96.6522 0.170987 97.5805 0.530061C98.5088 0.889134 99.3146 1.385 99.9802 2.03475C100.646 2.6674 101.171 3.43685 101.539 4.32598C101.907 5.21511 102.1 6.20684 102.1 7.26696C102.1 8.32708 101.907 9.26751 101.522 10.1737C101.136 11.0629 100.611 11.8323 99.9276 12.4821C99.2445 13.1318 98.4563 13.6277 97.528 14.0039C96.5996 14.38 95.6012 14.551 94.4977 14.551C93.3942 14.551 92.3783 14.38 91.45 14.021C90.5216 13.6619 89.7334 13.166 89.0678 12.5163C88.4022 11.8665 87.8768 11.0971 87.5089 10.225C87.1411 9.35301 86.9484 8.36128 86.9484 7.30116L86.9835 7.26696ZM89.5758 7.26696C89.5758 7.98511 89.6984 8.65196 89.9436 9.26751C90.1888 9.88307 90.5216 10.396 90.977 10.8406C91.4149 11.2681 91.9404 11.6271 92.536 11.8665C93.149 12.1059 93.8146 12.2427 94.5503 12.2427C95.2859 12.2427 95.934 12.123 96.5471 11.8665C97.1601 11.6271 97.6856 11.2681 98.1235 10.8406C98.5614 10.396 98.9117 9.88307 99.1569 9.26751C99.4021 8.66906 99.5423 8.00221 99.5423 7.28406C99.5423 6.56591 99.4197 5.88196 99.1744 5.28351C98.9292 4.68505 98.5964 4.15499 98.141 3.72752C97.6856 3.30006 97.1776 2.95808 96.5646 2.7016C95.9515 2.46222 95.2859 2.32543 94.5503 2.32543C93.8146 2.32543 93.149 2.44512 92.536 2.7016C91.9404 2.94098 91.4149 3.28296 90.977 3.72752C90.5392 4.15499 90.1888 4.68505 89.9436 5.28351C89.6984 5.88196 89.5758 6.54882 89.5758 7.28406V7.26696Z" fill="var(--fill-0, white)"/>
<path id="Vector_7" d="M116.2 0.205185V14.3287H113.502L106.864 4.30888V14.3287H104.272V0.205185H106.969L113.59 10.225V0.205185H116.182H116.2Z" fill="var(--fill-0, white)"/>
<path id="Vector_8" d="M118.354 7.26696C118.354 6.20684 118.547 5.21511 118.915 4.32598C119.283 3.43685 119.808 2.6674 120.474 2.03475C121.139 1.4021 121.945 0.889134 122.856 0.530061C123.784 0.170987 124.8 0 125.904 0C126.762 0 127.585 0.119691 128.338 0.341975C129.091 0.564258 129.775 0.889134 130.388 1.2995C131.001 1.70987 131.526 2.22284 131.982 2.82129C132.419 3.41975 132.77 4.1037 133.015 4.85604H130.212C129.81 4.0524 129.232 3.43685 128.496 2.99228C127.76 2.54771 126.902 2.32543 125.921 2.32543C125.185 2.32543 124.52 2.44512 123.907 2.7016C123.294 2.94098 122.786 3.28296 122.348 3.72752C121.91 4.15499 121.56 4.68505 121.332 5.28351C121.104 5.88196 120.964 6.54881 120.964 7.28406C120.964 8.01931 121.087 8.66906 121.332 9.28461C121.577 9.90017 121.91 10.4131 122.348 10.8577C122.786 11.2852 123.311 11.6442 123.907 11.8836C124.502 12.123 125.185 12.2598 125.921 12.2598C127.042 12.2598 128.005 11.9691 128.811 11.4049C129.617 10.8406 130.177 10.0712 130.51 9.09653H125.255V6.7711H133.348V7.30116C133.348 8.36128 133.173 9.35301 132.805 10.2421C132.437 11.1313 131.929 11.9007 131.263 12.5334C130.598 13.166 129.81 13.679 128.916 14.0381C128.005 14.3971 127.007 14.5681 125.886 14.5681C124.765 14.5681 123.767 14.3971 122.838 14.0381C121.91 13.679 121.122 13.1831 120.456 12.5334C119.791 11.8836 119.265 11.1142 118.897 10.2421C118.529 9.35301 118.337 8.37838 118.337 7.31826L118.354 7.26696Z" fill="var(--fill-0, white)"/>
<path id="Vector_9" d="M151.407 4.87314C151.407 5.59129 151.284 6.22394 151.021 6.8053C150.758 7.38665 150.408 7.86542 149.953 8.27579C149.497 8.68616 148.937 8.99393 148.271 9.21622C147.623 9.4385 146.887 9.54109 146.064 9.54109H143.069V14.3458H140.477V0.205185H146.064C146.887 0.205185 147.623 0.307777 148.271 0.530061C148.919 0.752344 149.48 1.06012 149.953 1.47049C150.426 1.88086 150.776 2.35963 151.021 2.94098C151.266 3.52234 151.407 4.15499 151.407 4.87314ZM148.814 4.87314C148.814 4.15499 148.569 3.59073 148.079 3.16327C147.588 2.7358 146.922 2.53061 146.064 2.53061H143.069V7.21566H146.064C146.887 7.21566 147.553 7.01048 148.043 6.60011C148.551 6.18974 148.797 5.60838 148.797 4.89024L148.814 4.87314Z" fill="var(--fill-0, white)"/>
<path id="Vector_10" d="M164.368 2.53061H159.832V14.3287H157.239V2.53061H152.703V0.205185H164.368V2.53061Z" fill="var(--fill-0, white)"/>
<path id="Vector_11" d="M176.349 2.53061H168.782V6.00166H175.578V8.32708H168.782V12.0204H176.349V14.3458H166.207V0.205185H176.349V2.53061Z" fill="var(--fill-0, white)"/>
<path id="Vector_12" d="M186.28 0.205185V12.0204H193.304V14.3458H183.688V0.205185H186.28Z" fill="var(--fill-0, white)"/>
<path id="Vector_13" d="M204.322 2.53061H199.785V14.3287H197.193V2.53061H192.656V0.205185H204.322V2.53061Z" fill="var(--fill-0, white)"/>
<path id="Vector_14" d="M219 7.26696C219 8.32708 218.807 9.28461 218.457 10.1395C218.089 11.0116 217.581 11.7468 216.916 12.3795C216.268 13.0121 215.479 13.4909 214.551 13.8158C213.623 14.1407 212.607 14.3287 211.486 14.3287H206.161V0.205185H211.486C212.607 0.205185 213.623 0.376172 214.551 0.718147C215.479 1.06012 216.268 1.53889 216.933 2.15444C217.599 2.78709 218.107 3.52234 218.475 4.39437C218.842 5.24931 219.018 6.22394 219.018 7.26696H219ZM216.408 7.26696C216.408 6.54881 216.285 5.89906 216.057 5.31771C215.83 4.73635 215.479 4.24049 215.059 3.81302C214.621 3.40265 214.113 3.07777 213.5 2.85549C212.905 2.6332 212.221 2.51351 211.468 2.51351H208.753V12.0204H211.468C212.221 12.0204 212.887 11.9007 213.5 11.6784C214.113 11.4562 214.621 11.1313 215.059 10.7209C215.497 10.3105 215.83 9.81467 216.057 9.21622C216.303 8.63486 216.408 7.98511 216.408 7.26696Z" fill="var(--fill-0, white)"/>
</g>
</svg>
