<svg preserveAspectRatio="none" width="100%" height="100%" overflow="visible" style="display: block;" viewBox="0 0 171.637 8.84004" fill="none" xmlns="http://www.w3.org/2000/svg">
<g id="Group">
<path id="Vector" d="M0 6.68561V0.205185H1.9968C2.76749 0.205185 3.41558 0.341975 3.92354 0.598456C4.4315 0.854937 4.79933 1.23111 5.04455 1.72697C5.28977 2.20574 5.41238 2.78709 5.41238 3.47104C5.41238 4.15499 5.28977 4.71925 5.04455 5.19801C4.79933 5.67678 4.4315 6.05295 3.92354 6.30943C3.41558 6.56591 2.76749 6.7027 1.9968 6.7027H0V6.68561ZM0.805727 6.03585H1.97928C2.62737 6.03585 3.13533 5.93326 3.52067 5.72807C3.90602 5.52289 4.18627 5.23221 4.34392 4.83894C4.50156 4.44567 4.58914 4.0011 4.58914 3.47104C4.58914 2.94098 4.50156 2.46222 4.34392 2.06895C4.18627 1.67568 3.90602 1.385 3.52067 1.16271C3.13533 0.95753 2.62737 0.854937 1.97928 0.854937H0.805727V6.05295V6.03585Z" fill="var(--fill-0, white)"/>
<path id="Vector_2" d="M9.0907 6.8053C8.63529 6.8053 8.24994 6.7027 7.89962 6.49752C7.54931 6.29233 7.28657 6.01875 7.07638 5.64258C6.86619 5.26641 6.77861 4.85604 6.77861 4.36018C6.77861 3.86431 6.88371 3.43685 7.07638 3.07777C7.26906 2.7187 7.54931 2.42802 7.89962 2.22284C8.24994 2.01765 8.6528 1.91506 9.12573 1.91506C9.59866 1.91506 9.984 2.01765 10.3168 2.22284C10.6496 2.42802 10.8948 2.7016 11.07 3.02647C11.2451 3.35135 11.3327 3.71042 11.3327 4.10369V4.30888C11.3327 4.30888 11.3327 4.46277 11.3327 4.54826H7.40918V3.94981H10.562C10.5445 3.52234 10.4044 3.19746 10.1241 2.95808C9.86139 2.7187 9.52859 2.59901 9.12573 2.59901C8.84548 2.59901 8.60026 2.6674 8.37255 2.78709C8.14484 2.90678 7.95217 3.07777 7.81204 3.31715C7.67192 3.53944 7.60185 3.83012 7.60185 4.17209V4.42857C7.60185 4.80474 7.67192 5.12962 7.81204 5.3861C7.95217 5.64258 8.14484 5.83067 8.39007 5.96746C8.63529 6.10425 8.88051 6.15554 9.14325 6.15554C9.47605 6.15554 9.73878 6.08715 9.96649 5.93326C10.1767 5.79647 10.3518 5.59129 10.4394 5.3348H11.2276C11.14 5.62548 11.0174 5.86487 10.8248 6.08715C10.6321 6.30943 10.4044 6.48042 10.1241 6.61721C9.84388 6.754 9.51108 6.8053 9.14325 6.8053H9.0907Z" fill="var(--fill-0, white)"/>
<path id="Vector_3" d="M12.8566 6.68561V0.0170991H13.6623V6.68561H12.8566Z" fill="var(--fill-0, white)"/>
<path id="Vector_4" d="M15.9394 1.04302C15.7817 1.04302 15.6416 0.991726 15.5365 0.889133C15.4314 0.786541 15.3789 0.666851 15.3789 0.512962C15.3789 0.359074 15.4314 0.239382 15.5365 0.13679C15.6416 0.0341973 15.7642 0 15.9394 0C16.1145 0 16.2196 0.0512961 16.3247 0.13679C16.4298 0.222283 16.4824 0.359074 16.4824 0.512962C16.4824 0.666851 16.4298 0.80364 16.3247 0.889133C16.2196 0.974627 16.0795 1.04302 15.9394 1.04302ZM15.5365 6.68561V2.05185H16.3422V6.68561H15.5365Z" fill="var(--fill-0, white)"/>
<path id="Vector_5" d="M19.5651 6.68561L17.761 2.05185H18.6018L20.0381 5.95036L21.4744 2.05185H22.2976L20.511 6.68561H19.5827H19.5651Z" fill="var(--fill-0, white)"/>
<path id="Vector_6" d="M25.5205 6.8053C25.0651 6.8053 24.6798 6.7027 24.3294 6.49752C23.9791 6.29233 23.7164 6.01875 23.5062 5.64258C23.296 5.26641 23.2084 4.85604 23.2084 4.36018C23.2084 3.86431 23.3135 3.43685 23.5062 3.07777C23.6989 2.7187 23.9791 2.42802 24.3294 2.22284C24.6798 2.01765 25.0826 1.91506 25.5555 1.91506C26.0285 1.91506 26.4138 2.01765 26.7466 2.22284C27.0794 2.42802 27.3246 2.7016 27.4998 3.02647C27.675 3.35135 27.7625 3.71042 27.7625 4.10369V4.30888C27.7625 4.30888 27.7625 4.46277 27.7625 4.54826H23.839V3.94981H26.9918C26.9743 3.52234 26.8342 3.19746 26.5539 2.95808C26.2912 2.7187 25.9584 2.59901 25.5555 2.59901C25.2753 2.59901 25.0301 2.6674 24.8024 2.78709C24.5747 2.90678 24.382 3.07777 24.2419 3.31715C24.1017 3.53944 24.0317 3.83012 24.0317 4.17209V4.42857C24.0317 4.80474 24.1017 5.12962 24.2419 5.3861C24.382 5.64258 24.5747 5.83067 24.8199 5.96746C25.0651 6.10425 25.3103 6.15554 25.5731 6.15554C25.9059 6.15554 26.1686 6.08715 26.3963 5.93326C26.6065 5.79647 26.7817 5.59129 26.8692 5.3348H27.6574C27.5699 5.62548 27.4473 5.86487 27.2546 6.08715C27.0619 6.30943 26.8342 6.48042 26.5539 6.61721C26.2737 6.754 25.9409 6.8053 25.5731 6.8053H25.5205Z" fill="var(--fill-0, white)"/>
<path id="Vector_7" d="M29.2689 6.68561V2.05185H29.987L30.0571 2.94098C30.1622 2.7358 30.2848 2.54771 30.46 2.41092C30.6351 2.27413 30.8278 2.15444 31.0555 2.06895C31.2832 1.98345 31.5635 1.94926 31.8612 1.94926V2.76999H31.5985C31.3883 2.76999 31.1956 2.78709 31.003 2.85549C30.8103 2.90678 30.6526 2.99228 30.5125 3.11197C30.3724 3.23166 30.2673 3.38555 30.1797 3.59073C30.0921 3.79592 30.0571 4.0353 30.0571 4.34308V6.7198H29.2514L29.2689 6.68561Z" fill="var(--fill-0, white)"/>
<path id="Vector_8" d="M33.7179 1.04302C33.5603 1.04302 33.4201 0.991726 33.315 0.889133C33.2099 0.786541 33.1574 0.666851 33.1574 0.512962C33.1574 0.359074 33.2099 0.239382 33.315 0.13679C33.4201 0.0341973 33.5427 0 33.7179 0C33.8931 0 33.9982 0.0512961 34.1033 0.13679C34.2084 0.222283 34.2609 0.359074 34.2609 0.512962C34.2609 0.666851 34.2084 0.80364 34.1033 0.889133C33.9982 0.974627 33.858 1.04302 33.7179 1.04302ZM33.315 6.68561V2.05185H34.1208V6.68561H33.315Z" fill="var(--fill-0, white)"/>
<path id="Vector_9" d="M35.9774 6.68561V2.05185H36.6956L36.7481 2.87259C36.9058 2.58191 37.116 2.35962 37.3962 2.18864C37.6765 2.01765 38.0093 1.93216 38.3596 1.93216C38.7099 1.93216 39.0427 2.00055 39.323 2.15444C39.6032 2.29123 39.8134 2.51351 39.9535 2.82129C40.0937 3.12907 40.1812 3.48814 40.1812 3.94981V6.7027H39.3755V4.0353C39.3755 3.57363 39.2704 3.21456 39.0602 2.97518C38.85 2.7358 38.5523 2.61611 38.1669 2.61611C37.8867 2.61611 37.659 2.6845 37.4488 2.80419C37.2386 2.94098 37.0634 3.11197 36.9408 3.36845C36.8182 3.60783 36.7481 3.89851 36.7481 4.25758V6.7027H35.9424L35.9774 6.68561Z" fill="var(--fill-0, white)"/>
<path id="Vector_10" d="M43.772 8.84004C43.3341 8.84004 42.9662 8.78875 42.6334 8.68616C42.3006 8.58356 42.0379 8.41258 41.8627 8.19029C41.6701 7.96801 41.5825 7.69443 41.5825 7.36955C41.5825 7.23276 41.6175 7.07888 41.6701 6.92499C41.7226 6.7711 41.8277 6.60011 41.9854 6.44622C42.1255 6.29233 42.3532 6.15554 42.6159 6.03585L43.1589 6.34363C42.8261 6.48042 42.6159 6.63431 42.5108 6.8053C42.4057 6.97628 42.3532 7.13017 42.3532 7.28406C42.3532 7.48924 42.4233 7.66023 42.5459 7.79702C42.6685 7.93381 42.8436 8.03641 43.0538 8.1048C43.264 8.17319 43.5092 8.20739 43.772 8.20739C44.0347 8.20739 44.2624 8.17319 44.4726 8.0877C44.6653 8.01931 44.8229 7.89961 44.928 7.76282C45.0331 7.62603 45.0857 7.47214 45.0857 7.28406C45.0857 7.07887 44.9981 6.89079 44.8404 6.754C44.6828 6.61721 44.3675 6.53172 43.9121 6.49752C43.5443 6.48042 43.229 6.44622 42.9838 6.39493C42.7385 6.34363 42.5284 6.30943 42.3532 6.24104C42.178 6.18974 42.0379 6.12135 41.9328 6.03585C41.8277 5.96746 41.7226 5.88196 41.635 5.79647V5.59128L42.5634 4.68505L43.2465 4.92444L42.3006 5.76227L42.4233 5.4374C42.4233 5.4374 42.5634 5.53999 42.6159 5.57419C42.6685 5.60838 42.7736 5.65968 42.8787 5.67678C42.9838 5.71098 43.1414 5.74517 43.3341 5.76227C43.5268 5.77937 43.772 5.81357 44.0873 5.83067C44.5252 5.86487 44.858 5.93326 45.1207 6.05295C45.3834 6.17264 45.5761 6.32653 45.6987 6.53172C45.8213 6.7369 45.8739 6.95918 45.8739 7.23276C45.8739 7.50634 45.8038 7.74572 45.6462 7.98511C45.506 8.22449 45.2608 8.42967 44.963 8.58356C44.6478 8.73745 44.2624 8.80585 43.772 8.80585V8.84004ZM43.772 5.23221C43.3691 5.23221 43.0363 5.16382 42.7561 5.00993C42.4758 4.85604 42.2656 4.66795 42.108 4.41147C41.9678 4.17209 41.8978 3.88141 41.8978 3.57364C41.8978 3.26586 41.9678 2.99228 42.1255 2.7529C42.2656 2.51351 42.4933 2.30833 42.7736 2.15444C43.0538 2.00055 43.3866 1.93216 43.7895 1.93216C44.1924 1.93216 44.5252 2.00055 44.8054 2.15444C45.0857 2.30833 45.2958 2.51351 45.436 2.7529C45.5761 2.99228 45.6462 3.28296 45.6462 3.57364C45.6462 3.86431 45.5761 4.15499 45.436 4.41147C45.2958 4.65085 45.0857 4.85604 44.8054 5.00993C44.5252 5.16382 44.1924 5.23221 43.7895 5.23221H43.772ZM43.772 4.59956C44.1048 4.59956 44.3675 4.51407 44.5777 4.34308C44.7704 4.17209 44.8755 3.91561 44.8755 3.59073C44.8755 3.26586 44.7704 3.02648 44.5777 2.85549C44.385 2.6845 44.1048 2.59901 43.772 2.59901C43.4392 2.59901 43.1589 2.6845 42.9662 2.85549C42.7561 3.02648 42.651 3.28296 42.651 3.59073C42.651 3.89851 42.7561 4.17209 42.9487 4.34308C43.1589 4.51407 43.4217 4.59956 43.772 4.59956ZM44.5427 2.7016L44.2974 2.05185H46.2592V2.6332L44.5427 2.7016Z" fill="var(--fill-0, white)"/>
<path id="Vector_11" d="M52.6875 6.68561L50.1828 0.205185H51.041L53.1429 5.86486L55.2623 0.205185H56.1031L53.5983 6.68561H52.67H52.6875Z" fill="var(--fill-0, white)"/>
<path id="Vector_12" d="M58.4852 6.8053C58.0999 6.8053 57.7671 6.7369 57.5044 6.61721C57.2416 6.48042 57.0489 6.30943 56.9263 6.08715C56.8037 5.86487 56.7337 5.62548 56.7337 5.369C56.7337 5.06123 56.8212 4.78765 56.9789 4.56536C57.154 4.34308 57.3817 4.18919 57.697 4.0695C57.9948 3.94981 58.3626 3.89851 58.7655 3.89851H60.0441C60.0441 3.60783 59.9916 3.36845 59.904 3.18036C59.8164 2.99228 59.6763 2.83839 59.5012 2.7529C59.326 2.6674 59.1158 2.59901 58.8531 2.59901C58.5553 2.59901 58.2926 2.6674 58.0649 2.82129C57.8372 2.97518 57.697 3.19746 57.6445 3.47104H56.8212C56.8563 3.14617 56.9789 2.87259 57.1716 2.6332C57.3642 2.39382 57.6094 2.22283 57.9072 2.10314C58.205 1.98345 58.5203 1.91506 58.8531 1.91506C59.291 1.91506 59.6588 2.00055 59.9566 2.15444C60.2543 2.30833 60.4645 2.53061 60.6222 2.80419C60.7623 3.07777 60.8499 3.41975 60.8499 3.79592V6.65141H60.1317L60.0792 5.83067C60.0091 5.96746 59.9391 6.08715 59.834 6.18974C59.7289 6.30943 59.6238 6.39493 59.4836 6.48042C59.3435 6.56591 59.2034 6.63431 59.0282 6.68561C58.8531 6.7369 58.6604 6.754 58.4502 6.754L58.4852 6.8053ZM58.6079 6.15554C58.8356 6.15554 59.0457 6.10425 59.2209 6.01875C59.3961 5.93326 59.5537 5.81357 59.6763 5.65968C59.7989 5.50579 59.904 5.3348 59.9741 5.12962C60.0441 4.94153 60.0617 4.73635 60.0617 4.53116L58.8531 4.51407C58.5553 4.51407 58.3101 4.54826 58.1174 4.61666C57.9247 4.68505 57.7846 4.78764 57.7145 4.90734C57.6445 5.02703 57.5919 5.18092 57.5919 5.3348C57.5919 5.48869 57.627 5.64258 57.7145 5.76227C57.8021 5.88196 57.9072 5.98456 58.0649 6.05295C58.2225 6.12135 58.3977 6.15554 58.6254 6.15554H58.6079Z" fill="var(--fill-0, white)"/>
<path id="Vector_13" d="M62.5489 6.68561V0.0170991H63.3546V6.68561H62.5489Z" fill="var(--fill-0, white)"/>
<path id="Vector_14" d="M66.8753 6.8053C66.5075 6.8053 66.1922 6.7369 65.9119 6.58301C65.6317 6.42912 65.4215 6.22394 65.2814 5.91616C65.1412 5.62548 65.0537 5.24931 65.0537 4.78765V2.03475H65.8594V4.70215C65.8594 5.18092 65.9645 5.53999 66.1747 5.76227C66.3849 6.00165 66.6826 6.12135 67.068 6.12135C67.3482 6.12135 67.5759 6.05295 67.7861 5.93326C67.9963 5.81357 68.1715 5.62548 68.2941 5.369C68.4167 5.12962 68.4868 4.83894 68.4868 4.47987V2.01765H69.2925V6.65141H68.5743L68.5218 5.83067C68.3817 6.12135 68.154 6.34363 67.8737 6.51462C67.5935 6.6856 67.2607 6.754 66.9103 6.754L66.8753 6.8053Z" fill="var(--fill-0, white)"/>
<path id="Vector_15" d="M73.1635 6.8053C72.7081 6.8053 72.3227 6.7027 71.9724 6.49752C71.6221 6.29233 71.3594 6.01875 71.1492 5.64258C70.939 5.26641 70.8514 4.85604 70.8514 4.36018C70.8514 3.86431 70.9565 3.43685 71.1492 3.07777C71.3418 2.7187 71.6221 2.42802 71.9724 2.22284C72.3227 2.01765 72.7256 1.91506 73.1985 1.91506C73.6714 1.91506 74.0568 2.01765 74.3896 2.22284C74.7224 2.42802 74.9676 2.7016 75.1428 3.02647C75.3179 3.35135 75.4055 3.71042 75.4055 4.10369V4.30888C75.4055 4.30888 75.4055 4.46277 75.4055 4.54826H71.482V3.94981H74.6348C74.6173 3.52234 74.4772 3.19746 74.1969 2.95808C73.9342 2.7187 73.6014 2.59901 73.1985 2.59901C72.9183 2.59901 72.673 2.6674 72.4453 2.78709C72.2176 2.90678 72.025 3.07777 71.8848 3.31715C71.7447 3.53944 71.6746 3.83012 71.6746 4.17209V4.42857C71.6746 4.80474 71.7447 5.12962 71.8848 5.3861C72.025 5.64258 72.2176 5.83067 72.4629 5.96746C72.7081 6.10425 72.9533 6.15554 73.216 6.15554C73.5488 6.15554 73.8116 6.08715 74.0393 5.93326C74.2495 5.79647 74.4246 5.59129 74.5122 5.3348H75.3004C75.2128 5.62548 75.0902 5.86487 74.8975 6.08715C74.7049 6.30943 74.4772 6.48042 74.1969 6.61721C73.9167 6.754 73.5839 6.8053 73.216 6.8053H73.1635Z" fill="var(--fill-0, white)"/>
<path id="Vector_16" d="M76.2988 7.83122L76.8418 5.77937H77.665L76.8418 7.83122H76.2988Z" fill="var(--fill-0, white)"/>
<path id="Vector_17" d="M82.1491 6.68561V0.205185H86.1952V0.837837H82.9548V3.11197H85.7223V3.74462H82.9548V6.68561H82.1491Z" fill="var(--fill-0, white)"/>
<path id="Vector_18" d="M88.9102 6.8053C88.5248 6.8053 88.192 6.7369 87.9293 6.61721C87.6666 6.48042 87.4914 6.30943 87.3513 6.08715C87.2287 5.86487 87.1586 5.62548 87.1586 5.369C87.1586 5.06123 87.2462 4.78765 87.4038 4.56536C87.579 4.34308 87.8067 4.18919 88.122 4.0695C88.4197 3.94981 88.7876 3.89851 89.208 3.89851H90.4866C90.4866 3.60783 90.4341 3.36845 90.3465 3.18036C90.2589 2.99228 90.1188 2.83839 89.9436 2.7529C89.7685 2.6674 89.5583 2.59901 89.2955 2.59901C88.9978 2.59901 88.735 2.6674 88.5073 2.82129C88.2796 2.97518 88.1395 3.19746 88.0869 3.47104H87.2637C87.2987 3.14617 87.4213 2.87259 87.614 2.6332C87.8067 2.39382 88.0519 2.22283 88.3497 2.10314C88.6474 1.98345 88.9627 1.91506 89.2955 1.91506C89.7334 1.91506 90.1013 2.00055 90.3815 2.15444C90.6793 2.30833 90.8895 2.53061 91.0471 2.80419C91.1872 3.07777 91.2748 3.41975 91.2748 3.79592V6.65141H90.5567L90.5041 5.83067C90.4341 5.96746 90.364 6.08715 90.2589 6.18974C90.1538 6.30943 90.0487 6.39493 89.9086 6.48042C89.7685 6.56591 89.6283 6.63431 89.4532 6.68561C89.278 6.7369 89.0853 6.754 88.8751 6.754L88.9102 6.8053ZM89.0328 6.15554C89.2605 6.15554 89.4707 6.10425 89.6458 6.01875C89.821 5.93326 89.9786 5.81357 90.1013 5.65968C90.2239 5.50579 90.329 5.3348 90.399 5.12962C90.4691 4.94153 90.4866 4.73635 90.4866 4.53116L89.278 4.51407C88.9802 4.51407 88.735 4.54826 88.5423 4.61666C88.3497 4.68505 88.2096 4.78764 88.1395 4.90734C88.0694 5.02703 88.0169 5.18092 88.0169 5.3348C88.0169 5.48869 88.0519 5.64258 88.1395 5.76227C88.2271 5.88196 88.3322 5.98456 88.4898 6.05295C88.6474 6.12135 88.8226 6.15554 89.0503 6.15554H89.0328Z" fill="var(--fill-0, white)"/>
<path id="Vector_19" d="M95.1283 6.8053C94.6729 6.8053 94.27 6.7027 93.9197 6.49752C93.5694 6.29233 93.2891 6.00166 93.0789 5.64258C92.8687 5.28351 92.7636 4.85604 92.7636 4.37728C92.7636 3.89851 92.8687 3.45394 93.0789 3.09487C93.2891 2.7358 93.5694 2.44512 93.9197 2.23993C94.2875 2.03475 94.6904 1.93216 95.1283 1.93216C95.7063 1.93216 96.1792 2.06895 96.5471 2.35963C96.9149 2.6503 97.1601 3.02648 97.2652 3.50524H96.442C96.3719 3.21456 96.2143 2.99228 95.969 2.82129C95.7238 2.6503 95.4261 2.58191 95.1108 2.58191C94.848 2.58191 94.6028 2.6503 94.3576 2.78709C94.1299 2.92388 93.9372 3.11197 93.7796 3.38555C93.6394 3.64203 93.5694 3.96691 93.5694 4.36018C93.5694 4.65086 93.6044 4.89024 93.692 5.11252C93.7796 5.3348 93.8847 5.52289 94.0423 5.67678C94.1824 5.83067 94.3576 5.95036 94.5327 6.01875C94.7079 6.08715 94.9181 6.13844 95.1108 6.13844C95.3385 6.13844 95.5311 6.10425 95.7238 6.03585C95.899 5.96746 96.0566 5.86486 96.1968 5.72807C96.3369 5.59128 96.4069 5.4203 96.4595 5.23221H97.2827C97.1776 5.69388 96.9324 6.08715 96.5646 6.37783C96.1968 6.66851 95.7063 6.8053 95.1458 6.8053H95.1283Z" fill="var(--fill-0, white)"/>
<path id="Vector_20" d="M99.3496 1.04302C99.192 1.04302 99.0518 0.991726 98.9642 0.889133C98.8592 0.786541 98.8066 0.666851 98.8066 0.512962C98.8066 0.359074 98.8592 0.239382 98.9642 0.13679C99.0693 0.0341973 99.192 0 99.3496 0C99.5072 0 99.6299 0.0512961 99.7349 0.13679C99.84 0.239382 99.8926 0.359074 99.8926 0.512962C99.8926 0.666851 99.84 0.80364 99.7349 0.889133C99.6299 0.991726 99.4897 1.04302 99.3496 1.04302ZM98.9467 6.68561V2.05185H99.7525V6.68561H98.9467Z" fill="var(--fill-0, white)"/>
<path id="Vector_21" d="M101.609 6.68561V0.0170991H102.415V6.68561H101.609Z" fill="var(--fill-0, white)"/>
<path id="Vector_22" d="M104.674 1.04302C104.517 1.04302 104.377 0.991726 104.272 0.889133C104.166 0.786541 104.114 0.666851 104.114 0.512962C104.114 0.359074 104.166 0.239382 104.272 0.13679C104.377 0.0341973 104.499 0 104.674 0C104.85 0 104.955 0.0512961 105.06 0.13679C105.165 0.239382 105.217 0.359074 105.217 0.512962C105.217 0.666851 105.165 0.80364 105.06 0.889133C104.955 0.991726 104.832 1.04302 104.674 1.04302ZM104.272 6.68561V2.05185H105.077V6.68561H104.272Z" fill="var(--fill-0, white)"/>
<path id="Vector_23" d="M108.826 6.68561C108.545 6.68561 108.3 6.63431 108.09 6.54882C107.88 6.46332 107.722 6.30943 107.617 6.10425C107.512 5.89906 107.459 5.60839 107.459 5.26641V2.6845H106.636V2.03475H107.459L107.565 0.923332H108.265V2.03475H109.649V2.6845H108.265V5.26641C108.265 5.55709 108.318 5.74517 108.44 5.84776C108.563 5.95036 108.773 6.00165 109.071 6.00165H109.579V6.66851H108.843L108.826 6.68561Z" fill="var(--fill-0, white)"/>
<path id="Vector_24" d="M112.679 6.8053C112.294 6.8053 111.961 6.7369 111.716 6.61721C111.471 6.49752 111.26 6.30943 111.138 6.08715C111.015 5.86487 110.945 5.62548 110.945 5.369C110.945 5.06123 111.033 4.78765 111.19 4.56536C111.365 4.34308 111.593 4.18919 111.908 4.0695C112.224 3.94981 112.574 3.89851 112.994 3.89851H114.273C114.273 3.60783 114.221 3.36845 114.133 3.18036C114.045 2.99228 113.905 2.83839 113.73 2.7529C113.555 2.6503 113.345 2.59901 113.082 2.59901C112.784 2.59901 112.521 2.6674 112.294 2.82129C112.066 2.97518 111.926 3.19746 111.891 3.47104H111.068C111.103 3.14617 111.225 2.87259 111.418 2.6332C111.611 2.41092 111.856 2.22283 112.154 2.10314C112.451 1.98345 112.767 1.91506 113.099 1.91506C113.537 1.91506 113.905 2.00055 114.203 2.15444C114.501 2.30833 114.711 2.53061 114.869 2.80419C115.009 3.07777 115.096 3.41975 115.096 3.79592V6.65141H114.378L114.326 5.83067C114.256 5.96746 114.185 6.08715 114.08 6.18974C113.975 6.30943 113.87 6.39493 113.73 6.48042C113.59 6.56591 113.45 6.63431 113.275 6.68561C113.099 6.7369 112.907 6.754 112.697 6.754L112.679 6.8053ZM112.802 6.15554C113.029 6.15554 113.24 6.10425 113.415 6.01875C113.59 5.93326 113.748 5.81357 113.87 5.65968C113.993 5.50579 114.098 5.3348 114.168 5.12962C114.238 4.94153 114.256 4.73635 114.256 4.53116L113.047 4.51407C112.749 4.51407 112.504 4.54826 112.311 4.61666C112.119 4.68505 111.978 4.78764 111.908 4.90734C111.838 5.02703 111.786 5.18092 111.786 5.3348C111.786 5.48869 111.821 5.64258 111.908 5.76227C111.996 5.88196 112.101 5.98456 112.259 6.05295C112.416 6.12135 112.592 6.15554 112.819 6.15554H112.802Z" fill="var(--fill-0, white)"/>
<path id="Vector_25" d="M118.494 6.68561C118.214 6.68561 117.969 6.63431 117.759 6.54882C117.549 6.46332 117.391 6.30943 117.286 6.10425C117.181 5.89906 117.111 5.60839 117.111 5.26641V2.6845H116.287V2.03475H117.111L117.216 0.923332H117.916V2.03475H119.3V2.6845H117.916V5.26641C117.916 5.55709 117.969 5.74517 118.092 5.84776C118.214 5.95036 118.424 6.00165 118.722 6.00165H119.23V6.66851H118.494V6.68561Z" fill="var(--fill-0, white)"/>
<path id="Vector_26" d="M121.279 1.04302C121.122 1.04302 120.982 0.991726 120.894 0.889133C120.806 0.786541 120.736 0.666851 120.736 0.512962C120.736 0.359074 120.789 0.239382 120.894 0.13679C120.999 0.0341973 121.122 0 121.279 0C121.437 0 121.56 0.0512961 121.665 0.13679C121.77 0.222283 121.822 0.359074 121.822 0.512962C121.822 0.666851 121.77 0.80364 121.665 0.889133C121.56 0.974627 121.437 1.04302 121.279 1.04302ZM120.877 6.68561V2.05185H121.682V6.68561H120.877Z" fill="var(--fill-0, white)"/>
<path id="Vector_27" d="M123.539 6.68561V2.05185H124.257L124.31 2.87259C124.467 2.58191 124.677 2.35962 124.958 2.18864C125.238 2.01765 125.571 1.93216 125.921 1.93216C126.271 1.93216 126.604 2.00055 126.884 2.15444C127.165 2.29123 127.375 2.51351 127.515 2.82129C127.673 3.11197 127.743 3.48814 127.743 3.94981V6.7027H126.937V4.0353C126.937 3.57363 126.832 3.21456 126.622 2.97518C126.411 2.7358 126.114 2.61611 125.728 2.61611C125.448 2.61611 125.22 2.6845 124.993 2.80419C124.783 2.94098 124.607 3.11197 124.485 3.36845C124.362 3.60783 124.292 3.89851 124.292 4.25758V6.7027H123.486L123.539 6.68561Z" fill="var(--fill-0, white)"/>
<path id="Vector_28" d="M131.333 8.84004C130.896 8.84004 130.528 8.78875 130.195 8.68616C129.862 8.58356 129.617 8.41258 129.424 8.19029C129.232 7.96801 129.144 7.69443 129.144 7.36955C129.144 7.23276 129.179 7.07888 129.232 6.92499C129.284 6.7711 129.389 6.60011 129.547 6.44622C129.687 6.29233 129.915 6.15554 130.177 6.03585L130.72 6.34363C130.388 6.48042 130.177 6.63431 130.072 6.8053C129.967 6.97628 129.915 7.13017 129.915 7.28406C129.915 7.48924 129.985 7.66023 130.107 7.79702C130.23 7.93381 130.405 8.03641 130.615 8.1048C130.825 8.17319 131.071 8.20739 131.333 8.20739C131.596 8.20739 131.824 8.17319 132.034 8.0877C132.227 8.01931 132.384 7.89961 132.489 7.76282C132.595 7.62603 132.647 7.47214 132.647 7.28406C132.647 7.07887 132.56 6.89079 132.402 6.754C132.244 6.61721 131.929 6.53172 131.474 6.49752C131.106 6.48042 130.79 6.44622 130.545 6.39493C130.3 6.34363 130.09 6.30943 129.915 6.24104C129.74 6.18974 129.617 6.12135 129.494 6.03585C129.372 5.95036 129.284 5.88196 129.197 5.79647V5.59128L130.125 4.68505L130.808 4.92444L129.862 5.76227L129.985 5.4374C129.985 5.4374 130.125 5.53999 130.177 5.57419C130.23 5.60838 130.335 5.65968 130.44 5.67678C130.545 5.71098 130.703 5.74517 130.896 5.76227C131.088 5.77937 131.333 5.81357 131.649 5.83067C132.087 5.86487 132.419 5.93326 132.682 6.05295C132.945 6.17264 133.138 6.32653 133.26 6.53172C133.383 6.7369 133.435 6.95918 133.435 7.23276C133.435 7.50634 133.365 7.74572 133.208 7.98511C133.068 8.22449 132.822 8.42967 132.525 8.58356C132.209 8.73745 131.824 8.80585 131.333 8.80585V8.84004ZM131.333 5.23221C130.931 5.23221 130.598 5.16382 130.318 5.00993C130.037 4.85604 129.827 4.66795 129.669 4.41147C129.529 4.17209 129.459 3.88141 129.459 3.57364C129.459 3.26586 129.529 2.99228 129.687 2.7529C129.845 2.51351 130.055 2.30833 130.335 2.15444C130.615 2.00055 130.948 1.93216 131.351 1.93216C131.754 1.93216 132.087 2.00055 132.367 2.15444C132.647 2.30833 132.857 2.51351 132.997 2.7529C133.138 2.99228 133.208 3.28296 133.208 3.57364C133.208 3.86431 133.138 4.15499 132.997 4.41147C132.857 4.65085 132.647 4.85604 132.367 5.00993C132.087 5.16382 131.754 5.23221 131.351 5.23221H131.333ZM131.333 4.59956C131.666 4.59956 131.929 4.51407 132.139 4.34308C132.332 4.17209 132.437 3.91561 132.437 3.59073C132.437 3.26586 132.332 3.02648 132.139 2.85549C131.946 2.6845 131.666 2.59901 131.333 2.59901C131.001 2.59901 130.72 2.6845 130.528 2.85549C130.318 3.02648 130.212 3.28296 130.212 3.59073C130.212 3.89851 130.318 4.17209 130.51 4.34308C130.72 4.51407 130.983 4.59956 131.333 4.59956ZM132.104 2.7016L131.859 2.05185H133.821V2.6332L132.104 2.7016Z" fill="var(--fill-0, white)"/>
<path id="Vector_29" d="M141.09 6.8053C140.477 6.8053 139.916 6.66851 139.461 6.37783C138.988 6.10425 138.638 5.71098 138.375 5.19801C138.112 4.70215 137.989 4.12079 137.989 3.45394C137.989 2.78709 138.13 2.20574 138.375 1.70987C138.638 1.19691 139.005 0.803641 139.496 0.530061C139.986 0.256482 140.547 0.102593 141.212 0.102593C141.966 0.102593 142.579 0.27358 143.087 0.632653C143.595 0.974628 143.91 1.47049 144.05 2.08605H143.122C143.034 1.69278 142.824 1.385 142.491 1.16271C142.158 0.940431 141.738 0.820738 141.212 0.820738C140.722 0.820738 140.302 0.923332 139.934 1.14562C139.566 1.3508 139.286 1.65858 139.093 2.05185C138.9 2.44512 138.795 2.92388 138.795 3.47104C138.795 4.0182 138.9 4.49697 139.093 4.89024C139.286 5.28351 139.566 5.59129 139.916 5.79647C140.267 6.00166 140.669 6.10425 141.125 6.10425C141.825 6.10425 142.368 5.89906 142.736 5.48869C143.104 5.07832 143.297 4.53116 143.349 3.83012H141.44V3.21456H144.173V6.68561H143.437L143.367 5.62548C143.209 5.88196 143.034 6.08715 142.824 6.27523C142.614 6.44622 142.368 6.58301 142.106 6.66851C141.825 6.754 141.493 6.8053 141.107 6.8053H141.09Z" fill="var(--fill-0, white)"/>
<path id="Vector_30" d="M145.854 6.68561V2.05185H146.572L146.642 2.94098C146.747 2.7358 146.87 2.54771 147.045 2.41092C147.22 2.27413 147.413 2.15444 147.641 2.06895C147.868 1.98345 148.149 1.94926 148.446 1.94926V2.76999H148.184C147.973 2.76999 147.781 2.78709 147.588 2.85549C147.395 2.90678 147.238 2.99228 147.098 3.11197C146.958 3.23166 146.852 3.38555 146.765 3.59073C146.695 3.79592 146.642 4.0353 146.642 4.34308V6.7198H145.837L145.854 6.68561Z" fill="var(--fill-0, white)"/>
<path id="Vector_31" d="M151.774 6.8053C151.336 6.8053 150.934 6.7027 150.583 6.49752C150.233 6.29233 149.953 6.01875 149.743 5.64258C149.532 5.28351 149.427 4.85604 149.427 4.36018C149.427 3.86431 149.532 3.43685 149.743 3.07777C149.953 2.7187 150.233 2.42802 150.601 2.22284C150.951 2.01765 151.354 1.91506 151.809 1.91506C152.265 1.91506 152.668 2.01765 153.018 2.22284C153.368 2.42802 153.649 2.7016 153.859 3.07777C154.069 3.43685 154.157 3.86431 154.157 4.36018C154.157 4.85604 154.051 5.26641 153.841 5.64258C153.631 6.00166 153.351 6.29233 153.001 6.49752C152.633 6.7027 152.247 6.8053 151.792 6.8053H151.774ZM151.774 6.13844C152.055 6.13844 152.317 6.07005 152.545 5.95036C152.773 5.81357 152.965 5.62548 153.106 5.3519C153.246 5.07832 153.316 4.77055 153.316 4.37728C153.316 3.98401 153.246 3.65913 153.106 3.38555C152.965 3.12907 152.773 2.92388 152.545 2.80419C152.317 2.6674 152.055 2.59901 151.792 2.59901C151.529 2.59901 151.284 2.6674 151.039 2.80419C150.794 2.94098 150.601 3.12907 150.461 3.38555C150.321 3.64203 150.251 3.96691 150.251 4.37728C150.251 4.78765 150.321 5.07832 150.461 5.3519C150.601 5.62548 150.794 5.81357 151.021 5.95036C151.249 6.08715 151.494 6.13844 151.774 6.13844Z" fill="var(--fill-0, white)"/>
<path id="Vector_32" d="M156.521 6.68561L155.12 2.05185H155.926L157.012 6.00165H156.836L158.045 2.05185H158.956L160.164 5.98455H159.989L161.075 2.05185H161.881L160.48 6.68561H159.656L158.395 2.56481H158.57L157.309 6.68561H156.486H156.521Z" fill="var(--fill-0, white)"/>
<path id="Vector_33" d="M165.121 6.68561C164.841 6.68561 164.596 6.63431 164.386 6.54882C164.176 6.46332 164.018 6.30943 163.913 6.10425C163.808 5.89906 163.738 5.60839 163.738 5.26641V2.6845H162.914V2.03475H163.738L163.843 0.923332H164.543V2.03475H165.927V2.6845H164.543V5.26641C164.543 5.55709 164.596 5.74517 164.719 5.84776C164.841 5.95036 165.051 6.00165 165.349 6.00165H165.857V6.66851H165.121V6.68561Z" fill="var(--fill-0, white)"/>
<path id="Vector_34" d="M167.416 6.68561V0.0170991H168.222V2.83839C168.379 2.56481 168.607 2.34253 168.887 2.18864C169.185 2.03475 169.5 1.94926 169.833 1.94926C170.166 1.94926 170.516 2.01765 170.779 2.17154C171.042 2.32543 171.269 2.53061 171.41 2.83839C171.55 3.12907 171.637 3.50524 171.637 3.96691V6.7027H170.849V4.0353C170.849 3.57363 170.744 3.21456 170.551 2.97518C170.341 2.7358 170.061 2.61611 169.676 2.61611C169.395 2.61611 169.15 2.6845 168.94 2.80419C168.712 2.94098 168.537 3.12907 168.414 3.36845C168.292 3.60783 168.222 3.91561 168.222 4.25758V6.68561H167.416Z" fill="var(--fill-0, white)"/>
</g>
</svg>
