<svg preserveAspectRatio="none" width="100%" height="100%" overflow="visible" style="display: block;" viewBox="0 0 50 50" fill="none" xmlns="http://www.w3.org/2000/svg">
<g id="basil:arrow-up-outline">
<rect x="0.5" y="0.5" width="49" height="49" rx="24.5" stroke="var(--stroke-0, #777777)"/>
<path id="Vector" d="M20.1121 22.4366C20.0153 22.5404 19.8987 22.6237 19.7691 22.6814C19.6395 22.7392 19.4996 22.7702 19.3578 22.7727C19.2159 22.7752 19.075 22.7491 18.9435 22.696C18.8119 22.6428 18.6924 22.5638 18.5921 22.4634C18.4918 22.3631 18.4127 22.2436 18.3596 22.1121C18.3064 21.9805 18.2803 21.8396 18.2828 21.6978C18.2853 21.5559 18.3164 21.416 18.3741 21.2864C18.4319 21.1568 18.5151 21.0402 18.6189 20.9435L24.2534 15.309C24.4515 15.1111 24.72 15 25 15C25.28 15 25.5485 15.1111 25.7466 15.309L31.3811 20.9435C31.4849 21.0402 31.5681 21.1568 31.6259 21.2864C31.6836 21.416 31.7147 21.5559 31.7172 21.6978C31.7197 21.8396 31.6936 21.9805 31.6404 22.1121C31.5873 22.2436 31.5082 22.3631 31.4079 22.4634C31.3076 22.5638 31.1881 22.6428 31.0565 22.696C30.925 22.7491 30.7841 22.7752 30.6422 22.7727C30.5004 22.7702 30.3605 22.7392 30.2309 22.6814C30.1013 22.6237 29.9847 22.5404 29.8879 22.4366L26.0565 18.6052L26.0565 32.2548C26.0565 32.535 25.9452 32.8037 25.747 33.0018C25.5489 33.1999 25.2802 33.3112 25 33.3112C24.7198 33.3112 24.4511 33.1999 24.253 33.0018C24.0548 32.8037 23.9435 32.535 23.9435 32.2548L23.9435 18.6052L20.1121 22.4366Z" fill="var(--fill-0, #09378B)"/>
</g>
</svg>
