<svg preserveAspectRatio="none" width="100%" height="100%" overflow="visible" style="display: block;" viewBox="0 0 30 30" fill="none" xmlns="http://www.w3.org/2000/svg">
<g id="basil:arrow-up-outline">
<rect width="30" height="30" rx="15" fill="var(--fill-0, #3A5FA2)"/>
<path id="Vector" d="M11.344 13.7371C11.273 13.8133 11.1873 13.8745 11.0921 13.9169C10.9969 13.9593 10.8941 13.9822 10.7899 13.984C10.6857 13.9858 10.5821 13.9667 10.4855 13.9276C10.3888 13.8886 10.301 13.8305 10.2273 13.7568C10.1536 13.6831 10.0955 13.5953 10.0565 13.4986C10.0175 13.402 9.99828 13.2985 10.0001 13.1942C10.002 13.09 10.0248 12.9872 10.0672 12.892C10.1096 12.7968 10.1708 12.7111 10.247 12.6401L14.3867 8.50043C14.5322 8.35507 14.7295 8.27343 14.9352 8.27343C15.1409 8.27343 15.3381 8.35507 15.4837 8.50043L19.6233 12.6401C19.6996 12.7111 19.7607 12.7968 19.8032 12.892C19.8456 12.9872 19.8684 13.09 19.8702 13.1942C19.8721 13.2985 19.8529 13.402 19.8139 13.4986C19.7748 13.5953 19.7167 13.6831 19.643 13.7568C19.5693 13.8305 19.4815 13.8886 19.3849 13.9276C19.2882 13.9667 19.1847 13.9858 19.0805 13.984C18.9763 13.9822 18.8735 13.9593 18.7783 13.9169C18.6831 13.8745 18.5974 13.8133 18.5263 13.7371L15.7114 10.9221V20.9504C15.7114 21.1562 15.6296 21.3537 15.484 21.4992C15.3385 21.6448 15.141 21.7266 14.9352 21.7266C14.7293 21.7266 14.5319 21.6448 14.3863 21.4992C14.2408 21.3537 14.159 21.1562 14.159 20.9504V10.9221L11.344 13.7371Z" fill="var(--fill-0, white)"/>
</g>
</svg>
