<svg preserveAspectRatio="none" width="100%" height="100%" overflow="visible" style="display: block;" viewBox="0 0 16.5655 16.4255" fill="none" xmlns="http://www.w3.org/2000/svg">
<g id="Isolation_Mode" clip-path="url(#clip0_0_65)">
<path id="Vector" d="M16.5655 2.84708V12.4581C16.5655 14.0333 15.2925 15.3052 13.716 15.3052H12.814V6.2838C12.814 4.70864 11.541 3.43671 9.96457 3.43671H1.60175C1.48373 3.43671 1.3657 3.43671 1.24768 3.46198V2.85551C1.24768 1.27192 2.52908 0 4.09711 0H13.7076C15.2841 0 16.557 1.27192 16.557 2.84708H16.5655Z" fill="url(#paint0_linear_0_65)"/>
<path id="Vector_2" d="M0 6.67969C0.0168605 5.39935 1.06221 4.3717 2.34361 4.3717H9.22271C10.521 4.3717 11.5663 5.4162 11.5663 6.71339V14.1006C11.5663 15.2968 10.6727 16.2823 9.50934 16.4255V9.02138C9.50934 7.72419 8.46398 6.67969 7.16572 6.67969H0Z" fill="url(#paint1_linear_0_65)"/>
</g>
<defs>
<linearGradient id="paint0_linear_0_65" x1="1.24768" y1="7.64837" x2="14.6651" y2="1.37347" gradientUnits="userSpaceOnUse">
<stop stop-color="#405AA8"/>
<stop offset="0.826923" stop-color="#4C91CE"/>
</linearGradient>
<linearGradient id="paint1_linear_0_65" x1="0" y1="10.3944" x2="11.5663" y2="10.3944" gradientUnits="userSpaceOnUse">
<stop stop-color="#405AA8"/>
<stop offset="1" stop-color="#4C91CE"/>
</linearGradient>
<clipPath id="clip0_0_65">
<rect width="16.5655" height="16.4255" fill="white"/>
</clipPath>
</defs>
</svg>
