<svg preserveAspectRatio="none" width="100%" height="100%" overflow="visible" style="display: block;" viewBox="0 0 57 57" fill="none" xmlns="http://www.w3.org/2000/svg">
<g id="quote_18094604 1">
<path id="Vector" d="M52.0855 24.992H39.2793V24.6349C39.2793 22.0091 40.074 18.2202 46.7995 15.4218C48.5039 14.6733 49.3217 12.7041 48.6421 10.9651C47.9396 9.16848 45.9127 8.27017 44.1163 8.97279C34.3389 13.0266 32.2889 19.7289 32.2889 24.6349V44.777C32.2889 46.7004 33.8551 48.2665 35.79 48.2665H52.0855C54.0088 48.2665 55.575 46.7004 55.575 44.777V28.4815C55.575 26.5583 54.0088 24.992 52.0855 24.992ZM21.21 24.992H8.41552V24.6349C8.41552 22.0091 9.19855 18.2202 15.9357 15.4218C17.6976 14.6388 18.4923 12.5773 17.7092 10.8152C16.9606 9.11084 14.9913 8.29322 13.2523 8.97279C3.47495 13.0266 1.425 19.7289 1.425 24.6349V44.777C1.425 46.7004 2.99121 48.2665 4.91449 48.2665H21.21C23.1449 48.2665 24.7111 46.7004 24.7111 44.777V28.4815C24.7111 26.5583 23.1449 24.992 21.21 24.992ZM52.0855 24.992H39.2793V24.6349C39.2793 22.0091 40.074 18.2202 46.7995 15.4218C48.5039 14.6733 49.3217 12.7041 48.6421 10.9651C47.9396 9.16848 45.9127 8.27017 44.1163 8.97279C34.3389 13.0266 32.2889 19.7289 32.2889 24.6349V44.777C32.2889 46.7004 33.8551 48.2665 35.79 48.2665H52.0855C54.0088 48.2665 55.575 46.7004 55.575 44.777V28.4815C55.575 26.5583 54.0088 24.992 52.0855 24.992ZM21.21 24.992H8.41552V24.6349C8.41552 22.0091 9.19855 18.2202 15.9357 15.4218C17.6976 14.6388 18.4923 12.5773 17.7092 10.8152C16.9606 9.11084 14.9913 8.29322 13.2523 8.97279C3.47495 13.0266 1.425 19.7289 1.425 24.6349V44.777C1.425 46.7004 2.99121 48.2665 4.91449 48.2665H21.21C23.1449 48.2665 24.7111 46.7004 24.7111 44.777V28.4815C24.7111 26.5583 23.1449 24.992 21.21 24.992ZM21.21 24.992H8.41552V24.6349C8.41552 22.0091 9.19855 18.2202 15.9357 15.4218C17.6976 14.6388 18.4923 12.5773 17.7092 10.8152C16.9606 9.11084 14.9913 8.29322 13.2523 8.97279C3.47495 13.0266 1.425 19.7289 1.425 24.6349V44.777C1.425 46.7004 2.99121 48.2665 4.91449 48.2665H21.21C23.1449 48.2665 24.7111 46.7004 24.7111 44.777V28.4815C24.7111 26.5583 23.1449 24.992 21.21 24.992ZM52.0855 24.992H39.2793V24.6349C39.2793 22.0091 40.074 18.2202 46.7995 15.4218C48.5039 14.6733 49.3217 12.7041 48.6421 10.9651C47.9396 9.16848 45.9127 8.27017 44.1163 8.97279C34.3389 13.0266 32.2889 19.7289 32.2889 24.6349V44.777C32.2889 46.7004 33.8551 48.2665 35.79 48.2665H52.0855C54.0088 48.2665 55.575 46.7004 55.575 44.777V28.4815C55.575 26.5583 54.0088 24.992 52.0855 24.992Z" fill="var(--fill-0, #09378B)" fill-opacity="0.07"/>
</g>
</svg>
